<svg xmlns="http://www.w3.org/2000/svg" viewBox="0 0 1280 340" width="1280" height="340" role="img" aria-label="Szymon Tułodziecki — full-stack · embedded · devops">
  <title>Szymon Tułodziecki — full-stack · embedded · devops</title>
  <defs>
    <linearGradient id="bg" x1="0" y1="0" x2="1" y2="1">
      <stop offset="0" stop-color="#1A1818"/>
      <stop offset="1" stop-color="#1F2422"/>
    </linearGradient>
  </defs>
  <style>
    .b { animation: rise .55s cubic-bezier(.2,.85,.3,1) both; }
    @keyframes rise {
      from { opacity: 0; transform: translateY(16px); }
      to   { opacity: 1; transform: translateY(0); }
    }
    .t { animation: fade .7s ease-out both; animation-delay: 830ms; }
    @keyframes fade {
      from { opacity: 0; transform: translateY(10px); }
      to   { opacity: 1; transform: translateY(0); }
    }
    .rule {
      stroke-dasharray: 200; stroke-dashoffset: 200;
      animation: draw .9s ease-out both, glow 3.5s ease-in-out 1730ms infinite;
      animation-delay: 950ms;
    }
    @keyframes draw { to { stroke-dashoffset: 0; } }
    @keyframes glow { 0%,100% { opacity: .45; } 50% { opacity: 1; } }
    .name { font: 700 60px "Fira Code", "JetBrains Mono", ui-monospace, "DejaVu Sans Mono", monospace; }
    .tag  { font: 400 19px "Fira Code", "JetBrains Mono", ui-monospace, "DejaVu Sans Mono", monospace; letter-spacing: 3px; }
  </style>

  <rect width="1280" height="340" fill="url(#bg)"/>

<g class="b" style="animation-delay:0ms"><polygon points="19.0,264.0 42.0,276.0 42.0,276.0 19.0,264.0" fill="#1F1F1D"/><polygon points="65.0,264.0 42.0,276.0 42.0,276.0 65.0,264.0" fill="#191918"/><polygon points="42.0,252.0 65.0,264.0 42.0,276.0 19.0,264.0" fill="#252523"/></g>
<g class="b" style="animation-delay:26ms"><polygon points="65.0,264.0 88.0,276.0 88.0,276.0 65.0,264.0" fill="#1F1F1D"/><polygon points="111.0,264.0 88.0,276.0 88.0,276.0 111.0,264.0" fill="#191918"/><polygon points="88.0,252.0 111.0,264.0 88.0,276.0 65.0,264.0" fill="#252523"/></g>
<g class="b" style="animation-delay:52ms"><polygon points="111.0,249.0 134.0,261.0 134.0,276.0 111.0,264.0" fill="#363E32"/><polygon points="157.0,249.0 134.0,261.0 134.0,276.0 157.0,264.0" fill="#2D332A"/><polygon points="134.0,237.0 157.0,249.0 134.0,261.0 111.0,249.0" fill="#414A3C"/></g>
<g class="b" style="animation-delay:78ms"><polygon points="157.0,234.0 180.0,246.0 180.0,276.0 157.0,264.0" fill="#4D5944"/><polygon points="203.0,234.0 180.0,246.0 180.0,276.0 203.0,264.0" fill="#404A39"/><polygon points="180.0,222.0 203.0,234.0 180.0,246.0 157.0,234.0" fill="#5C6B52"/></g>
<g class="b" style="animation-delay:104ms"><polygon points="203.0,234.0 226.0,246.0 226.0,276.0 203.0,264.0" fill="#4D5944"/><polygon points="249.0,234.0 226.0,246.0 226.0,276.0 249.0,264.0" fill="#404A39"/><polygon points="226.0,222.0 249.0,234.0 226.0,246.0 203.0,234.0" fill="#5C6B52"/></g>
<g class="b" style="animation-delay:130ms"><polygon points="249.0,234.0 272.0,246.0 272.0,276.0 249.0,264.0" fill="#4D5944"/><polygon points="295.0,234.0 272.0,246.0 272.0,276.0 295.0,264.0" fill="#404A39"/><polygon points="272.0,222.0 295.0,234.0 272.0,246.0 249.0,234.0" fill="#5C6B52"/></g>
<g class="b" style="animation-delay:156ms"><polygon points="295.0,249.0 318.0,261.0 318.0,276.0 295.0,264.0" fill="#363E32"/><polygon points="341.0,249.0 318.0,261.0 318.0,276.0 341.0,264.0" fill="#2D332A"/><polygon points="318.0,237.0 341.0,249.0 318.0,261.0 295.0,249.0" fill="#414A3C"/></g>
<g class="b" style="animation-delay:182ms"><polygon points="341.0,234.0 364.0,246.0 364.0,276.0 341.0,264.0" fill="#4D5944"/><polygon points="387.0,234.0 364.0,246.0 364.0,276.0 387.0,264.0" fill="#404A39"/><polygon points="364.0,222.0 387.0,234.0 364.0,246.0 341.0,234.0" fill="#5C6B52"/></g>
<g class="b" style="animation-delay:208ms"><polygon points="387.0,249.0 410.0,261.0 410.0,276.0 387.0,264.0" fill="#363E32"/><polygon points="433.0,249.0 410.0,261.0 410.0,276.0 433.0,264.0" fill="#2D332A"/><polygon points="410.0,237.0 433.0,249.0 410.0,261.0 387.0,249.0" fill="#414A3C"/></g>
<g class="b" style="animation-delay:234ms"><polygon points="433.0,264.0 456.0,276.0 456.0,276.0 433.0,264.0" fill="#1F1F1D"/><polygon points="479.0,264.0 456.0,276.0 456.0,276.0 479.0,264.0" fill="#191918"/><polygon points="456.0,252.0 479.0,264.0 456.0,276.0 433.0,264.0" fill="#252523"/></g>
<g class="b" style="animation-delay:260ms"><polygon points="479.0,264.0 502.0,276.0 502.0,276.0 479.0,264.0" fill="#1F1F1D"/><polygon points="525.0,264.0 502.0,276.0 502.0,276.0 525.0,264.0" fill="#191918"/><polygon points="502.0,252.0 525.0,264.0 502.0,276.0 479.0,264.0" fill="#252523"/></g>
<g class="b" style="animation-delay:286ms"><polygon points="525.0,249.0 548.0,261.0 548.0,276.0 525.0,264.0" fill="#363E32"/><polygon points="571.0,249.0 548.0,261.0 548.0,276.0 571.0,264.0" fill="#2D332A"/><polygon points="548.0,237.0 571.0,249.0 548.0,261.0 525.0,249.0" fill="#414A3C"/></g>
<g class="b" style="animation-delay:312ms"><polygon points="571.0,264.0 594.0,276.0 594.0,276.0 571.0,264.0" fill="#1F1F1D"/><polygon points="617.0,264.0 594.0,276.0 594.0,276.0 617.0,264.0" fill="#191918"/><polygon points="594.0,252.0 617.0,264.0 594.0,276.0 571.0,264.0" fill="#252523"/></g>
<g class="b" style="animation-delay:338ms"><polygon points="617.0,234.0 640.0,246.0 640.0,276.0 617.0,264.0" fill="#4D5944"/><polygon points="663.0,234.0 640.0,246.0 640.0,276.0 663.0,264.0" fill="#404A39"/><polygon points="640.0,222.0 663.0,234.0 640.0,246.0 617.0,234.0" fill="#5C6B52"/></g>
<g class="b" style="animation-delay:364ms"><polygon points="663.0,234.0 686.0,246.0 686.0,276.0 663.0,264.0" fill="#4D5944"/><polygon points="709.0,234.0 686.0,246.0 686.0,276.0 709.0,264.0" fill="#404A39"/><polygon points="686.0,222.0 709.0,234.0 686.0,246.0 663.0,234.0" fill="#5C6B52"/></g>
<g class="b" style="animation-delay:390ms"><polygon points="709.0,249.0 732.0,261.0 732.0,276.0 709.0,264.0" fill="#363E32"/><polygon points="755.0,249.0 732.0,261.0 732.0,276.0 755.0,264.0" fill="#2D332A"/><polygon points="732.0,237.0 755.0,249.0 732.0,261.0 709.0,249.0" fill="#414A3C"/></g>
<g class="b" style="animation-delay:416ms"><polygon points="755.0,234.0 778.0,246.0 778.0,276.0 755.0,264.0" fill="#4D5944"/><polygon points="801.0,234.0 778.0,246.0 778.0,276.0 801.0,264.0" fill="#404A39"/><polygon points="778.0,222.0 801.0,234.0 778.0,246.0 755.0,234.0" fill="#5C6B52"/></g>
<g class="b" style="animation-delay:442ms"><polygon points="801.0,249.0 824.0,261.0 824.0,276.0 801.0,264.0" fill="#363E32"/><polygon points="847.0,249.0 824.0,261.0 824.0,276.0 847.0,264.0" fill="#2D332A"/><polygon points="824.0,237.0 847.0,249.0 824.0,261.0 801.0,249.0" fill="#414A3C"/></g>
<g class="b" style="animation-delay:468ms"><polygon points="847.0,264.0 870.0,276.0 870.0,276.0 847.0,264.0" fill="#1F1F1D"/><polygon points="893.0,264.0 870.0,276.0 870.0,276.0 893.0,264.0" fill="#191918"/><polygon points="870.0,252.0 893.0,264.0 870.0,276.0 847.0,264.0" fill="#252523"/></g>
<g class="b" style="animation-delay:494ms"><polygon points="893.0,264.0 916.0,276.0 916.0,276.0 893.0,264.0" fill="#1F1F1D"/><polygon points="939.0,264.0 916.0,276.0 916.0,276.0 939.0,264.0" fill="#191918"/><polygon points="916.0,252.0 939.0,264.0 916.0,276.0 893.0,264.0" fill="#252523"/></g>
<g class="b" style="animation-delay:520ms"><polygon points="939.0,234.0 962.0,246.0 962.0,276.0 939.0,264.0" fill="#4D5944"/><polygon points="985.0,234.0 962.0,246.0 962.0,276.0 985.0,264.0" fill="#404A39"/><polygon points="962.0,222.0 985.0,234.0 962.0,246.0 939.0,234.0" fill="#5C6B52"/></g>
<g class="b" style="animation-delay:546ms"><polygon points="985.0,264.0 1008.0,276.0 1008.0,276.0 985.0,264.0" fill="#1F1F1D"/><polygon points="1031.0,264.0 1008.0,276.0 1008.0,276.0 1031.0,264.0" fill="#191918"/><polygon points="1008.0,252.0 1031.0,264.0 1008.0,276.0 985.0,264.0" fill="#252523"/></g>
<g class="b" style="animation-delay:572ms"><polygon points="1031.0,264.0 1054.0,276.0 1054.0,276.0 1031.0,264.0" fill="#1F1F1D"/><polygon points="1077.0,264.0 1054.0,276.0 1054.0,276.0 1077.0,264.0" fill="#191918"/><polygon points="1054.0,252.0 1077.0,264.0 1054.0,276.0 1031.0,264.0" fill="#252523"/></g>
<g class="b" style="animation-delay:598ms"><polygon points="1077.0,249.0 1100.0,261.0 1100.0,276.0 1077.0,264.0" fill="#363E32"/><polygon points="1123.0,249.0 1100.0,261.0 1100.0,276.0 1123.0,264.0" fill="#2D332A"/><polygon points="1100.0,237.0 1123.0,249.0 1100.0,261.0 1077.0,249.0" fill="#414A3C"/></g>
<g class="b" style="animation-delay:624ms"><polygon points="1123.0,249.0 1146.0,261.0 1146.0,276.0 1123.0,264.0" fill="#363E32"/><polygon points="1169.0,249.0 1146.0,261.0 1146.0,276.0 1169.0,264.0" fill="#2D332A"/><polygon points="1146.0,237.0 1169.0,249.0 1146.0,261.0 1123.0,249.0" fill="#414A3C"/></g>
<g class="b" style="animation-delay:70ms"><polygon points="42.0,261.0 65.0,273.0 65.0,288.0 42.0,276.0" fill="#363E32"/><polygon points="88.0,261.0 65.0,273.0 65.0,288.0 88.0,276.0" fill="#2D332A"/><polygon points="65.0,249.0 88.0,261.0 65.0,273.0 42.0,261.0" fill="#414A3C"/></g>
<g class="b" style="animation-delay:96ms"><polygon points="88.0,231.0 111.0,243.0 111.0,288.0 88.0,276.0" fill="#63745A"/><polygon points="134.0,231.0 111.0,243.0 111.0,288.0 134.0,276.0" fill="#52614B"/><polygon points="111.0,219.0 134.0,231.0 111.0,243.0 88.0,231.0" fill="#768B6C"/></g>
<g class="b" style="animation-delay:122ms"><polygon points="134.0,261.0 157.0,273.0 157.0,288.0 134.0,276.0" fill="#363E32"/><polygon points="180.0,261.0 157.0,273.0 157.0,288.0 180.0,276.0" fill="#2D332A"/><polygon points="157.0,249.0 180.0,261.0 157.0,273.0 134.0,261.0" fill="#414A3C"/></g>
<g class="b" style="animation-delay:148ms"><polygon points="180.0,231.0 203.0,243.0 203.0,288.0 180.0,276.0" fill="#63745A"/><polygon points="226.0,231.0 203.0,243.0 203.0,288.0 226.0,276.0" fill="#52614B"/><polygon points="203.0,219.0 226.0,231.0 203.0,243.0 180.0,231.0" fill="#768B6C"/></g>
<g class="b" style="animation-delay:174ms"><polygon points="226.0,276.0 249.0,288.0 249.0,288.0 226.0,276.0" fill="#1F1F1D"/><polygon points="272.0,276.0 249.0,288.0 249.0,288.0 272.0,276.0" fill="#191918"/><polygon points="249.0,264.0 272.0,276.0 249.0,288.0 226.0,276.0" fill="#252523"/></g>
<g class="b" style="animation-delay:200ms"><polygon points="272.0,231.0 295.0,243.0 295.0,288.0 272.0,276.0" fill="#63745A"/><polygon points="318.0,231.0 295.0,243.0 295.0,288.0 318.0,276.0" fill="#52614B"/><polygon points="295.0,219.0 318.0,231.0 295.0,243.0 272.0,231.0" fill="#768B6C"/></g>
<g class="b" style="animation-delay:226ms"><polygon points="318.0,261.0 341.0,273.0 341.0,288.0 318.0,276.0" fill="#363E32"/><polygon points="364.0,261.0 341.0,273.0 341.0,288.0 364.0,276.0" fill="#2D332A"/><polygon points="341.0,249.0 364.0,261.0 341.0,273.0 318.0,261.0" fill="#414A3C"/></g>
<g class="b" style="animation-delay:252ms"><polygon points="364.0,246.0 387.0,258.0 387.0,288.0 364.0,276.0" fill="#4D5944"/><polygon points="410.0,246.0 387.0,258.0 387.0,288.0 410.0,276.0" fill="#404A39"/><polygon points="387.0,234.0 410.0,246.0 387.0,258.0 364.0,246.0" fill="#5C6B52"/></g>
<g class="b" style="animation-delay:278ms"><polygon points="410.0,231.0 433.0,243.0 433.0,288.0 410.0,276.0" fill="#63745A"/><polygon points="456.0,231.0 433.0,243.0 433.0,288.0 456.0,276.0" fill="#52614B"/><polygon points="433.0,219.0 456.0,231.0 433.0,243.0 410.0,231.0" fill="#768B6C"/></g>
<g class="b" style="animation-delay:304ms"><polygon points="456.0,231.0 479.0,243.0 479.0,288.0 456.0,276.0" fill="#63745A"/><polygon points="502.0,231.0 479.0,243.0 479.0,288.0 502.0,276.0" fill="#52614B"/><polygon points="479.0,219.0 502.0,231.0 479.0,243.0 456.0,231.0" fill="#768B6C"/></g>
<g class="b" style="animation-delay:330ms"><polygon points="502.0,261.0 525.0,273.0 525.0,288.0 502.0,276.0" fill="#363E32"/><polygon points="548.0,261.0 525.0,273.0 525.0,288.0 548.0,276.0" fill="#2D332A"/><polygon points="525.0,249.0 548.0,261.0 525.0,273.0 502.0,261.0" fill="#414A3C"/></g>
<g class="b" style="animation-delay:356ms"><polygon points="548.0,246.0 571.0,258.0 571.0,288.0 548.0,276.0" fill="#4D5944"/><polygon points="594.0,246.0 571.0,258.0 571.0,288.0 594.0,276.0" fill="#404A39"/><polygon points="571.0,234.0 594.0,246.0 571.0,258.0 548.0,246.0" fill="#5C6B52"/></g>
<g class="b" style="animation-delay:382ms"><polygon points="594.0,246.0 617.0,258.0 617.0,288.0 594.0,276.0" fill="#4D5944"/><polygon points="640.0,246.0 617.0,258.0 617.0,288.0 640.0,276.0" fill="#404A39"/><polygon points="617.0,234.0 640.0,246.0 617.0,258.0 594.0,246.0" fill="#5C6B52"/></g>
<g class="b" style="animation-delay:408ms"><polygon points="640.0,261.0 663.0,273.0 663.0,288.0 640.0,276.0" fill="#363E32"/><polygon points="686.0,261.0 663.0,273.0 663.0,288.0 686.0,276.0" fill="#2D332A"/><polygon points="663.0,249.0 686.0,261.0 663.0,273.0 640.0,261.0" fill="#414A3C"/></g>
<g class="b" style="animation-delay:434ms"><polygon points="686.0,246.0 709.0,258.0 709.0,288.0 686.0,276.0" fill="#4D5944"/><polygon points="732.0,246.0 709.0,258.0 709.0,288.0 732.0,276.0" fill="#404A39"/><polygon points="709.0,234.0 732.0,246.0 709.0,258.0 686.0,246.0" fill="#5C6B52"/></g>
<g class="b" style="animation-delay:460ms"><polygon points="732.0,276.0 755.0,288.0 755.0,288.0 732.0,276.0" fill="#1F1F1D"/><polygon points="778.0,276.0 755.0,288.0 755.0,288.0 778.0,276.0" fill="#191918"/><polygon points="755.0,264.0 778.0,276.0 755.0,288.0 732.0,276.0" fill="#252523"/></g>
<g class="b" style="animation-delay:486ms"><polygon points="778.0,276.0 801.0,288.0 801.0,288.0 778.0,276.0" fill="#1F1F1D"/><polygon points="824.0,276.0 801.0,288.0 801.0,288.0 824.0,276.0" fill="#191918"/><polygon points="801.0,264.0 824.0,276.0 801.0,288.0 778.0,276.0" fill="#252523"/></g>
<g class="b" style="animation-delay:512ms"><polygon points="824.0,276.0 847.0,288.0 847.0,288.0 824.0,276.0" fill="#1F1F1D"/><polygon points="870.0,276.0 847.0,288.0 847.0,288.0 870.0,276.0" fill="#191918"/><polygon points="847.0,264.0 870.0,276.0 847.0,288.0 824.0,276.0" fill="#252523"/></g>
<g class="b" style="animation-delay:538ms"><polygon points="870.0,261.0 893.0,273.0 893.0,288.0 870.0,276.0" fill="#363E32"/><polygon points="916.0,261.0 893.0,273.0 893.0,288.0 916.0,276.0" fill="#2D332A"/><polygon points="893.0,249.0 916.0,261.0 893.0,273.0 870.0,261.0" fill="#414A3C"/></g>
<g class="b" style="animation-delay:564ms"><polygon points="916.0,246.0 939.0,258.0 939.0,288.0 916.0,276.0" fill="#4D5944"/><polygon points="962.0,246.0 939.0,258.0 939.0,288.0 962.0,276.0" fill="#404A39"/><polygon points="939.0,234.0 962.0,246.0 939.0,258.0 916.0,246.0" fill="#5C6B52"/></g>
<g class="b" style="animation-delay:590ms"><polygon points="962.0,231.0 985.0,243.0 985.0,288.0 962.0,276.0" fill="#63745A"/><polygon points="1008.0,231.0 985.0,243.0 985.0,288.0 1008.0,276.0" fill="#52614B"/><polygon points="985.0,219.0 1008.0,231.0 985.0,243.0 962.0,231.0" fill="#768B6C"/></g>
<g class="b" style="animation-delay:616ms"><polygon points="1008.0,276.0 1031.0,288.0 1031.0,288.0 1008.0,276.0" fill="#1F1F1D"/><polygon points="1054.0,276.0 1031.0,288.0 1031.0,288.0 1054.0,276.0" fill="#191918"/><polygon points="1031.0,264.0 1054.0,276.0 1031.0,288.0 1008.0,276.0" fill="#252523"/></g>
<g class="b" style="animation-delay:642ms"><polygon points="1054.0,246.0 1077.0,258.0 1077.0,288.0 1054.0,276.0" fill="#4D5944"/><polygon points="1100.0,246.0 1077.0,258.0 1077.0,288.0 1100.0,276.0" fill="#404A39"/><polygon points="1077.0,234.0 1100.0,246.0 1077.0,258.0 1054.0,246.0" fill="#5C6B52"/></g>
<g class="b" style="animation-delay:668ms"><polygon points="1100.0,231.0 1123.0,243.0 1123.0,288.0 1100.0,276.0" fill="#63745A"/><polygon points="1146.0,231.0 1123.0,243.0 1123.0,288.0 1146.0,276.0" fill="#52614B"/><polygon points="1123.0,219.0 1146.0,231.0 1123.0,243.0 1100.0,231.0" fill="#768B6C"/></g>
<g class="b" style="animation-delay:694ms"><polygon points="1146.0,246.0 1169.0,258.0 1169.0,288.0 1146.0,276.0" fill="#4D5944"/><polygon points="1192.0,246.0 1169.0,258.0 1169.0,288.0 1192.0,276.0" fill="#404A39"/><polygon points="1169.0,234.0 1192.0,246.0 1169.0,258.0 1146.0,246.0" fill="#5C6B52"/></g>
<g class="b" style="animation-delay:140ms"><polygon points="65.0,258.0 88.0,270.0 88.0,300.0 65.0,288.0" fill="#4D5944"/><polygon points="111.0,258.0 88.0,270.0 88.0,300.0 111.0,288.0" fill="#404A39"/><polygon points="88.0,246.0 111.0,258.0 88.0,270.0 65.0,258.0" fill="#5C6B52"/></g>
<g class="b" style="animation-delay:166ms"><polygon points="111.0,273.0 134.0,285.0 134.0,300.0 111.0,288.0" fill="#363E32"/><polygon points="157.0,273.0 134.0,285.0 134.0,300.0 157.0,288.0" fill="#2D332A"/><polygon points="134.0,261.0 157.0,273.0 134.0,285.0 111.0,273.0" fill="#414A3C"/></g>
<g class="b" style="animation-delay:192ms"><polygon points="157.0,258.0 180.0,270.0 180.0,300.0 157.0,288.0" fill="#4D5944"/><polygon points="203.0,258.0 180.0,270.0 180.0,300.0 203.0,288.0" fill="#404A39"/><polygon points="180.0,246.0 203.0,258.0 180.0,270.0 157.0,258.0" fill="#5C6B52"/></g>
<g class="b" style="animation-delay:218ms"><polygon points="203.0,258.0 226.0,270.0 226.0,300.0 203.0,288.0" fill="#4D5944"/><polygon points="249.0,258.0 226.0,270.0 226.0,300.0 249.0,288.0" fill="#404A39"/><polygon points="226.0,246.0 249.0,258.0 226.0,270.0 203.0,258.0" fill="#5C6B52"/></g>
<g class="b" style="animation-delay:244ms"><polygon points="249.0,258.0 272.0,270.0 272.0,300.0 249.0,288.0" fill="#4D5944"/><polygon points="295.0,258.0 272.0,270.0 272.0,300.0 295.0,288.0" fill="#404A39"/><polygon points="272.0,246.0 295.0,258.0 272.0,270.0 249.0,258.0" fill="#5C6B52"/></g>
<g class="b" style="animation-delay:270ms"><polygon points="295.0,243.0 318.0,255.0 318.0,300.0 295.0,288.0" fill="#63745A"/><polygon points="341.0,243.0 318.0,255.0 318.0,300.0 341.0,288.0" fill="#52614B"/><polygon points="318.0,231.0 341.0,243.0 318.0,255.0 295.0,243.0" fill="#768B6C"/></g>
<g class="b" style="animation-delay:296ms"><polygon points="341.0,288.0 364.0,300.0 364.0,300.0 341.0,288.0" fill="#1F1F1D"/><polygon points="387.0,288.0 364.0,300.0 364.0,300.0 387.0,288.0" fill="#191918"/><polygon points="364.0,276.0 387.0,288.0 364.0,300.0 341.0,288.0" fill="#252523"/></g>
<g class="b" style="animation-delay:322ms"><polygon points="387.0,258.0 410.0,270.0 410.0,300.0 387.0,288.0" fill="#4D5944"/><polygon points="433.0,258.0 410.0,270.0 410.0,300.0 433.0,288.0" fill="#404A39"/><polygon points="410.0,246.0 433.0,258.0 410.0,270.0 387.0,258.0" fill="#5C6B52"/></g>
<g class="b" style="animation-delay:348ms"><polygon points="433.0,228.0 456.0,240.0 456.0,300.0 433.0,288.0" fill="#869976"/><polygon points="479.0,228.0 456.0,240.0 456.0,300.0 479.0,288.0" fill="#708062"/><polygon points="456.0,216.0 479.0,228.0 456.0,240.0 433.0,228.0" fill="#A0B78D"/></g>
<g class="b" style="animation-delay:374ms"><polygon points="479.0,228.0 502.0,240.0 502.0,300.0 479.0,288.0" fill="#869976"/><polygon points="525.0,228.0 502.0,240.0 502.0,300.0 525.0,288.0" fill="#708062"/><polygon points="502.0,216.0 525.0,228.0 502.0,240.0 479.0,228.0" fill="#A0B78D"/></g>
<g class="b" style="animation-delay:400ms"><polygon points="525.0,288.0 548.0,300.0 548.0,300.0 525.0,288.0" fill="#1F1F1D"/><polygon points="571.0,288.0 548.0,300.0 548.0,300.0 571.0,288.0" fill="#191918"/><polygon points="548.0,276.0 571.0,288.0 548.0,300.0 525.0,288.0" fill="#252523"/></g>
<g class="b" style="animation-delay:426ms"><polygon points="571.0,243.0 594.0,255.0 594.0,300.0 571.0,288.0" fill="#63745A"/><polygon points="617.0,243.0 594.0,255.0 594.0,300.0 617.0,288.0" fill="#52614B"/><polygon points="594.0,231.0 617.0,243.0 594.0,255.0 571.0,243.0" fill="#768B6C"/></g>
<g class="b" style="animation-delay:452ms"><polygon points="617.0,243.0 640.0,255.0 640.0,300.0 617.0,288.0" fill="#63745A"/><polygon points="663.0,243.0 640.0,255.0 640.0,300.0 663.0,288.0" fill="#52614B"/><polygon points="640.0,231.0 663.0,243.0 640.0,255.0 617.0,243.0" fill="#768B6C"/></g>
<g class="b" style="animation-delay:478ms"><polygon points="663.0,258.0 686.0,270.0 686.0,300.0 663.0,288.0" fill="#4D5944"/><polygon points="709.0,258.0 686.0,270.0 686.0,300.0 709.0,288.0" fill="#404A39"/><polygon points="686.0,246.0 709.0,258.0 686.0,270.0 663.0,258.0" fill="#5C6B52"/></g>
<g class="b" style="animation-delay:504ms"><polygon points="709.0,273.0 732.0,285.0 732.0,300.0 709.0,288.0" fill="#363E32"/><polygon points="755.0,273.0 732.0,285.0 732.0,300.0 755.0,288.0" fill="#2D332A"/><polygon points="732.0,261.0 755.0,273.0 732.0,285.0 709.0,273.0" fill="#414A3C"/></g>
<g class="b" style="animation-delay:530ms"><polygon points="755.0,228.0 778.0,240.0 778.0,300.0 755.0,288.0" fill="#869976"/><polygon points="801.0,228.0 778.0,240.0 778.0,300.0 801.0,288.0" fill="#708062"/><polygon points="778.0,216.0 801.0,228.0 778.0,240.0 755.0,228.0" fill="#A0B78D"/></g>
<g class="b" style="animation-delay:556ms"><polygon points="801.0,258.0 824.0,270.0 824.0,300.0 801.0,288.0" fill="#4D5944"/><polygon points="847.0,258.0 824.0,270.0 824.0,300.0 847.0,288.0" fill="#404A39"/><polygon points="824.0,246.0 847.0,258.0 824.0,270.0 801.0,258.0" fill="#5C6B52"/></g>
<g class="b" style="animation-delay:582ms"><polygon points="847.0,258.0 870.0,270.0 870.0,300.0 847.0,288.0" fill="#4D5944"/><polygon points="893.0,258.0 870.0,270.0 870.0,300.0 893.0,288.0" fill="#404A39"/><polygon points="870.0,246.0 893.0,258.0 870.0,270.0 847.0,258.0" fill="#5C6B52"/></g>
<g class="b" style="animation-delay:608ms"><polygon points="893.0,243.0 916.0,255.0 916.0,300.0 893.0,288.0" fill="#63745A"/><polygon points="939.0,243.0 916.0,255.0 916.0,300.0 939.0,288.0" fill="#52614B"/><polygon points="916.0,231.0 939.0,243.0 916.0,255.0 893.0,243.0" fill="#768B6C"/></g>
<g class="b" style="animation-delay:634ms"><polygon points="939.0,258.0 962.0,270.0 962.0,300.0 939.0,288.0" fill="#4D5944"/><polygon points="985.0,258.0 962.0,270.0 962.0,300.0 985.0,288.0" fill="#404A39"/><polygon points="962.0,246.0 985.0,258.0 962.0,270.0 939.0,258.0" fill="#5C6B52"/></g>
<g class="b" style="animation-delay:660ms"><polygon points="985.0,258.0 1008.0,270.0 1008.0,300.0 985.0,288.0" fill="#4D5944"/><polygon points="1031.0,258.0 1008.0,270.0 1008.0,300.0 1031.0,288.0" fill="#404A39"/><polygon points="1008.0,246.0 1031.0,258.0 1008.0,270.0 985.0,258.0" fill="#5C6B52"/></g>
<g class="b" style="animation-delay:686ms"><polygon points="1031.0,258.0 1054.0,270.0 1054.0,300.0 1031.0,288.0" fill="#4D5944"/><polygon points="1077.0,258.0 1054.0,270.0 1054.0,300.0 1077.0,288.0" fill="#404A39"/><polygon points="1054.0,246.0 1077.0,258.0 1054.0,270.0 1031.0,258.0" fill="#5C6B52"/></g>
<g class="b" style="animation-delay:712ms"><polygon points="1077.0,273.0 1100.0,285.0 1100.0,300.0 1077.0,288.0" fill="#363E32"/><polygon points="1123.0,273.0 1100.0,285.0 1100.0,300.0 1123.0,288.0" fill="#2D332A"/><polygon points="1100.0,261.0 1123.0,273.0 1100.0,285.0 1077.0,273.0" fill="#414A3C"/></g>
<g class="b" style="animation-delay:738ms"><polygon points="1123.0,243.0 1146.0,255.0 1146.0,300.0 1123.0,288.0" fill="#63745A"/><polygon points="1169.0,243.0 1146.0,255.0 1146.0,300.0 1169.0,288.0" fill="#52614B"/><polygon points="1146.0,231.0 1169.0,243.0 1146.0,255.0 1123.0,243.0" fill="#768B6C"/></g>
<g class="b" style="animation-delay:764ms"><polygon points="1169.0,243.0 1192.0,255.0 1192.0,300.0 1169.0,288.0" fill="#63745A"/><polygon points="1215.0,243.0 1192.0,255.0 1192.0,300.0 1215.0,288.0" fill="#52614B"/><polygon points="1192.0,231.0 1215.0,243.0 1192.0,255.0 1169.0,243.0" fill="#768B6C"/></g>
<g class="b" style="animation-delay:210ms"><polygon points="88.0,270.0 111.0,282.0 111.0,312.0 88.0,300.0" fill="#4D5944"/><polygon points="134.0,270.0 111.0,282.0 111.0,312.0 134.0,300.0" fill="#404A39"/><polygon points="111.0,258.0 134.0,270.0 111.0,282.0 88.0,270.0" fill="#5C6B52"/></g>
<g class="b" style="animation-delay:236ms"><polygon points="134.0,255.0 157.0,267.0 157.0,312.0 134.0,300.0" fill="#63745A"/><polygon points="180.0,255.0 157.0,267.0 157.0,312.0 180.0,300.0" fill="#52614B"/><polygon points="157.0,243.0 180.0,255.0 157.0,267.0 134.0,255.0" fill="#768B6C"/></g>
<g class="b" style="animation-delay:262ms"><polygon points="180.0,300.0 203.0,312.0 203.0,312.0 180.0,300.0" fill="#1F1F1D"/><polygon points="226.0,300.0 203.0,312.0 203.0,312.0 226.0,300.0" fill="#191918"/><polygon points="203.0,288.0 226.0,300.0 203.0,312.0 180.0,300.0" fill="#252523"/></g>
<g class="b" style="animation-delay:288ms"><polygon points="226.0,240.0 249.0,252.0 249.0,312.0 226.0,300.0" fill="#869976"/><polygon points="272.0,240.0 249.0,252.0 249.0,312.0 272.0,300.0" fill="#708062"/><polygon points="249.0,228.0 272.0,240.0 249.0,252.0 226.0,240.0" fill="#A0B78D"/></g>
<g class="b" style="animation-delay:314ms"><polygon points="272.0,270.0 295.0,282.0 295.0,312.0 272.0,300.0" fill="#4D5944"/><polygon points="318.0,270.0 295.0,282.0 295.0,312.0 318.0,300.0" fill="#404A39"/><polygon points="295.0,258.0 318.0,270.0 295.0,282.0 272.0,270.0" fill="#5C6B52"/></g>
<g class="b" style="animation-delay:340ms"><polygon points="318.0,285.0 341.0,297.0 341.0,312.0 318.0,300.0" fill="#363E32"/><polygon points="364.0,285.0 341.0,297.0 341.0,312.0 364.0,300.0" fill="#2D332A"/><polygon points="341.0,273.0 364.0,285.0 341.0,297.0 318.0,285.0" fill="#414A3C"/></g>
<g class="b" style="animation-delay:366ms"><polygon points="364.0,285.0 387.0,297.0 387.0,312.0 364.0,300.0" fill="#363E32"/><polygon points="410.0,285.0 387.0,297.0 387.0,312.0 410.0,300.0" fill="#2D332A"/><polygon points="387.0,273.0 410.0,285.0 387.0,297.0 364.0,285.0" fill="#414A3C"/></g>
<g class="b" style="animation-delay:392ms"><polygon points="410.0,255.0 433.0,267.0 433.0,312.0 410.0,300.0" fill="#63745A"/><polygon points="456.0,255.0 433.0,267.0 433.0,312.0 456.0,300.0" fill="#52614B"/><polygon points="433.0,243.0 456.0,255.0 433.0,267.0 410.0,255.0" fill="#768B6C"/></g>
<g class="b" style="animation-delay:418ms"><polygon points="456.0,255.0 479.0,267.0 479.0,312.0 456.0,300.0" fill="#63745A"/><polygon points="502.0,255.0 479.0,267.0 479.0,312.0 502.0,300.0" fill="#52614B"/><polygon points="479.0,243.0 502.0,255.0 479.0,267.0 456.0,255.0" fill="#768B6C"/></g>
<g class="b" style="animation-delay:444ms"><polygon points="502.0,240.0 525.0,252.0 525.0,312.0 502.0,300.0" fill="#869976"/><polygon points="548.0,240.0 525.0,252.0 525.0,312.0 548.0,300.0" fill="#708062"/><polygon points="525.0,228.0 548.0,240.0 525.0,252.0 502.0,240.0" fill="#A0B78D"/></g>
<g class="b" style="animation-delay:470ms"><polygon points="548.0,270.0 571.0,282.0 571.0,312.0 548.0,300.0" fill="#4D5944"/><polygon points="594.0,270.0 571.0,282.0 571.0,312.0 594.0,300.0" fill="#404A39"/><polygon points="571.0,258.0 594.0,270.0 571.0,282.0 548.0,270.0" fill="#5C6B52"/></g>
<g class="b" style="animation-delay:496ms"><polygon points="594.0,285.0 617.0,297.0 617.0,312.0 594.0,300.0" fill="#363E32"/><polygon points="640.0,285.0 617.0,297.0 617.0,312.0 640.0,300.0" fill="#2D332A"/><polygon points="617.0,273.0 640.0,285.0 617.0,297.0 594.0,285.0" fill="#414A3C"/></g>
<g class="b" style="animation-delay:522ms"><polygon points="640.0,270.0 663.0,282.0 663.0,312.0 640.0,300.0" fill="#4D5944"/><polygon points="686.0,270.0 663.0,282.0 663.0,312.0 686.0,300.0" fill="#404A39"/><polygon points="663.0,258.0 686.0,270.0 663.0,282.0 640.0,270.0" fill="#5C6B52"/></g>
<g class="b" style="animation-delay:548ms"><polygon points="686.0,270.0 709.0,282.0 709.0,312.0 686.0,300.0" fill="#4D5944"/><polygon points="732.0,270.0 709.0,282.0 709.0,312.0 732.0,300.0" fill="#404A39"/><polygon points="709.0,258.0 732.0,270.0 709.0,282.0 686.0,270.0" fill="#5C6B52"/></g>
<g class="b" style="animation-delay:574ms"><polygon points="732.0,255.0 755.0,267.0 755.0,312.0 732.0,300.0" fill="#63745A"/><polygon points="778.0,255.0 755.0,267.0 755.0,312.0 778.0,300.0" fill="#52614B"/><polygon points="755.0,243.0 778.0,255.0 755.0,267.0 732.0,255.0" fill="#768B6C"/></g>
<g class="b" style="animation-delay:600ms"><polygon points="778.0,255.0 801.0,267.0 801.0,312.0 778.0,300.0" fill="#63745A"/><polygon points="824.0,255.0 801.0,267.0 801.0,312.0 824.0,300.0" fill="#52614B"/><polygon points="801.0,243.0 824.0,255.0 801.0,267.0 778.0,255.0" fill="#768B6C"/></g>
<g class="b" style="animation-delay:626ms"><polygon points="824.0,300.0 847.0,312.0 847.0,312.0 824.0,300.0" fill="#1F1F1D"/><polygon points="870.0,300.0 847.0,312.0 847.0,312.0 870.0,300.0" fill="#191918"/><polygon points="847.0,288.0 870.0,300.0 847.0,312.0 824.0,300.0" fill="#252523"/></g>
<g class="b" style="animation-delay:652ms"><polygon points="870.0,270.0 893.0,282.0 893.0,312.0 870.0,300.0" fill="#4D5944"/><polygon points="916.0,270.0 893.0,282.0 893.0,312.0 916.0,300.0" fill="#404A39"/><polygon points="893.0,258.0 916.0,270.0 893.0,282.0 870.0,270.0" fill="#5C6B52"/></g>
<g class="b" style="animation-delay:678ms"><polygon points="916.0,270.0 939.0,282.0 939.0,312.0 916.0,300.0" fill="#4D5944"/><polygon points="962.0,270.0 939.0,282.0 939.0,312.0 962.0,300.0" fill="#404A39"/><polygon points="939.0,258.0 962.0,270.0 939.0,282.0 916.0,270.0" fill="#5C6B52"/></g>
<g class="b" style="animation-delay:704ms"><polygon points="962.0,240.0 985.0,252.0 985.0,312.0 962.0,300.0" fill="#869976"/><polygon points="1008.0,240.0 985.0,252.0 985.0,312.0 1008.0,300.0" fill="#708062"/><polygon points="985.0,228.0 1008.0,240.0 985.0,252.0 962.0,240.0" fill="#A0B78D"/></g>
<g class="b" style="animation-delay:730ms"><polygon points="1008.0,285.0 1031.0,297.0 1031.0,312.0 1008.0,300.0" fill="#363E32"/><polygon points="1054.0,285.0 1031.0,297.0 1031.0,312.0 1054.0,300.0" fill="#2D332A"/><polygon points="1031.0,273.0 1054.0,285.0 1031.0,297.0 1008.0,285.0" fill="#414A3C"/></g>
<g class="b" style="animation-delay:756ms"><polygon points="1054.0,240.0 1077.0,252.0 1077.0,312.0 1054.0,300.0" fill="#869976"/><polygon points="1100.0,240.0 1077.0,252.0 1077.0,312.0 1100.0,300.0" fill="#708062"/><polygon points="1077.0,228.0 1100.0,240.0 1077.0,252.0 1054.0,240.0" fill="#A0B78D"/></g>
<g class="b" style="animation-delay:782ms"><polygon points="1100.0,300.0 1123.0,312.0 1123.0,312.0 1100.0,300.0" fill="#1F1F1D"/><polygon points="1146.0,300.0 1123.0,312.0 1123.0,312.0 1146.0,300.0" fill="#191918"/><polygon points="1123.0,288.0 1146.0,300.0 1123.0,312.0 1100.0,300.0" fill="#252523"/></g>
<g class="b" style="animation-delay:808ms"><polygon points="1146.0,300.0 1169.0,312.0 1169.0,312.0 1146.0,300.0" fill="#1F1F1D"/><polygon points="1192.0,300.0 1169.0,312.0 1169.0,312.0 1192.0,300.0" fill="#191918"/><polygon points="1169.0,288.0 1192.0,300.0 1169.0,312.0 1146.0,300.0" fill="#252523"/></g>
<g class="b" style="animation-delay:834ms"><polygon points="1192.0,255.0 1215.0,267.0 1215.0,312.0 1192.0,300.0" fill="#63745A"/><polygon points="1238.0,255.0 1215.0,267.0 1215.0,312.0 1238.0,300.0" fill="#52614B"/><polygon points="1215.0,243.0 1238.0,255.0 1215.0,267.0 1192.0,255.0" fill="#768B6C"/></g>

  <g class="t" text-anchor="middle">
    <text class="name" x="640" y="112" fill="#C5C9C5">Szymon Tułodziecki</text>
    <text class="tag"  x="640" y="150" fill="#7A8382">full-stack · embedded · devops</text>
  </g>
  <line class="rule" x1="540" y1="172" x2="740" y2="172"
        stroke="#C4B28A" stroke-width="2" stroke-linecap="round"/>
</svg>
